<?xml version="1.0" standalone="no"?><svg xmlns:xlink="http://www.w3.org/1999/xlink" xmlns="http://www.w3.org/2000/svg" viewBox="0 0 1000 562.5016428202185" preserveAspectRatio="xMaxYMax slice"><g transform="scale(0.8761707832090632)"><rect x="0" y="0" width="1141.3333333333333" height="642" fill="#ffffff"/><g transform="translate(242.53,28.53) scale(0.7135) rotate(0)"><path d="M10 5L5 0L0 5L5 10L0 15L5 20L10 15L15 20L20 15L15 10L20 5L15 0L10 5Z" fill="#606171"/></g><g transform="translate(385.2,28.53) scale(0.7135) rotate(0)"><rect width="2" height="20" fill="#8b8c97"/><rect x="4" width="2" height="20" fill="#8b8c97"/><rect x="8" width="2" height="20" fill="#8b8c97"/><rect x="12" width="2" height="20" fill="#8b8c97"/><rect x="16" width="2" height="20" fill="#8b8c97"/></g><g transform="translate(527.87,28.53) scale(0.7135) rotate(0)"><path d="M10 5L5 0L0 5L5 10L0 15L5 20L10 15L15 20L20 15L15 10L20 5L15 0L10 5Z" fill="#f3f3f4"/></g><g transform="translate(599.2,28.53) scale(0.7135) rotate(0)"><path d="M10 5L5 0L0 5L5 10L0 15L5 20L10 15L15 20L20 15L15 10L20 5L15 0L10 5Z" fill="#a8a9b2"/></g><g transform="translate(670.53,28.53) scale(0.7135) rotate(0)"><path d="M10 5L5 0L0 5L5 10L0 15L5 20L10 15L15 20L20 15L15 10L20 5L15 0L10 5Z" fill="#fff3e0"/></g><g transform="translate(813.2,28.53) scale(0.7135) rotate(0)"><path d="M5 0H10L5 5L0 10V5L5 0Z" fill="#fdbb4e"/><path d="M20 15V20H15L20 15Z" fill="#fdbb4e"/><path d="M20 5V10L15 15L10 20H5L20 5Z" fill="#fdbb4e"/><path d="M15 0H20L5 15.0002L0 20.0002V15.0002L15 0Z" fill="#fdbb4e"/></g><g transform="translate(1027.2,28.53) scale(0.7135) rotate(0)"><path d="M10 5L5 0L0 5L5 10L0 15L5 20L10 15L15 20L20 15L15 10L20 5L15 0L10 5Z" fill="#feda9e"/></g><g transform="translate(171.2,99.87) scale(0.7135) rotate(0)"><path d="M5 0H10L5 5L0 10V5L5 0Z" fill="#feeac9"/><path d="M20 15V20H15L20 15Z" fill="#feeac9"/><path d="M20 5V10L15 15L10 20H5L20 5Z" fill="#feeac9"/><path d="M15 0H20L5 15.0002L0 20.0002V15.0002L15 0Z" fill="#feeac9"/></g><g transform="translate(313.87,99.87) scale(0.7135) rotate(0)"><rect width="2" height="20" fill="#fdd086"/><rect x="4" width="2" height="20" fill="#fdd086"/><rect x="8" width="2" height="20" fill="#fdd086"/><rect x="12" width="2" height="20" fill="#fdd086"/><rect x="16" width="2" height="20" fill="#fdd086"/></g><g transform="translate(385.2,99.87) scale(0.7135) rotate(0)"><path d="M5 0H10L5 5L0 10V5L5 0Z" fill="#fffbf4"/><path d="M20 15V20H15L20 15Z" fill="#fffbf4"/><path d="M20 5V10L15 15L10 20H5L20 5Z" fill="#fffbf4"/><path d="M15 0H20L5 15.0002L0 20.0002V15.0002L15 0Z" fill="#fffbf4"/></g><g transform="translate(527.87,99.87) scale(0.7135) rotate(0)"><path d="M10 5L5 0L0 5L5 10L0 15L5 20L10 15L15 20L20 15L15 10L20 5L15 0L10 5Z" fill="#fcb135"/></g><g transform="translate(599.2,99.87) scale(0.7135) rotate(0)"><path d="M10 5L5 0L0 5L5 10L0 15L5 20L10 15L15 20L20 15L15 10L20 5L15 0L10 5Z" fill="#fffbf4"/></g><g transform="translate(813.2,99.87) scale(0.7135) rotate(0)"><path d="M10 5L5 0L0 5L5 10L0 15L5 20L10 15L15 20L20 15L15 10L20 5L15 0L10 5Z" fill="#b7b8bf"/></g><g transform="translate(1098.53,99.87) scale(0.7135) rotate(0)"><path d="M10 5L5 0L0 5L5 10L0 15L5 20L10 15L15 20L20 15L15 10L20 5L15 0L10 5Z" fill="#feda9f"/></g><g transform="translate(99.87,171.2) scale(0.7135) rotate(0)"><path d="M5 0H10L5 5L0 10V5L5 0Z" fill="#5e5f6f"/><path d="M20 15V20H15L20 15Z" fill="#5e5f6f"/><path d="M20 5V10L15 15L10 20H5L20 5Z" fill="#5e5f6f"/><path d="M15 0H20L5 15.0002L0 20.0002V15.0002L15 0Z" fill="#5e5f6f"/></g><g transform="translate(385.2,171.2) scale(0.7135) rotate(0)"><rect width="2" height="20" fill="#fdcf82"/><rect x="4" width="2" height="20" fill="#fdcf82"/><rect x="8" width="2" height="20" fill="#fdcf82"/><rect x="12" width="2" height="20" fill="#fdcf82"/><rect x="16" width="2" height="20" fill="#fdcf82"/></g><g transform="translate(456.53,171.2) scale(0.7135) rotate(0)"><path d="M10 5L5 0L0 5L5 10L0 15L5 20L10 15L15 20L20 15L15 10L20 5L15 0L10 5Z" fill="#e9e9eb"/></g><g transform="translate(813.2,171.2) scale(0.7135) rotate(0)"><rect width="2" height="20" fill="#fedea9"/><rect x="4" width="2" height="20" fill="#fedea9"/><rect x="8" width="2" height="20" fill="#fedea9"/><rect x="12" width="2" height="20" fill="#fedea9"/><rect x="16" width="2" height="20" fill="#fedea9"/></g><circle cx="178.33499999999998" cy="249.665" r="7.135" fill="#fdd085"/><g transform="translate(527.87,242.53) scale(0.7135) rotate(0)"><path d="M10 5L5 0L0 5L5 10L0 15L5 20L10 15L15 20L20 15L15 10L20 5L15 0L10 5Z" fill="#dddde0"/></g><g transform="translate(599.2,242.53) scale(0.7135) rotate(0)"><path d="M10 5L5 0L0 5L5 10L0 15L5 20L10 15L15 20L20 15L15 10L20 5L15 0L10 5Z" fill="#fca618"/></g><circle cx="963.005" cy="249.665" r="7.135" fill="#fee8c3"/><g transform="translate(1027.2,242.53) scale(0.7135) rotate(0)"><path d="M5 0H10L5 5L0 10V5L5 0Z" fill="#fcab24"/><path d="M20 15V20H15L20 15Z" fill="#fcab24"/><path d="M20 5V10L15 15L10 20H5L20 5Z" fill="#fcab24"/><path d="M15 0H20L5 15.0002L0 20.0002V15.0002L15 0Z" fill="#fcab24"/></g><g transform="translate(99.87,313.87) scale(0.7135) rotate(0)"><path d="M5 0H10L5 5L0 10V5L5 0Z" fill="#737482"/><path d="M20 15V20H15L20 15Z" fill="#737482"/><path d="M20 5V10L15 15L10 20H5L20 5Z" fill="#737482"/><path d="M15 0H20L5 15.0002L0 20.0002V15.0002L15 0Z" fill="#737482"/></g><circle cx="321.005" cy="321.005" r="7.135" fill="#fffefd"/><circle cx="535.005" cy="321.005" r="7.135" fill="#f4f5f6"/><g transform="translate(599.2,313.87) scale(0.7135) rotate(0)"><path d="M10 5L5 0L0 5L5 10L0 15L5 20L10 15L15 20L20 15L15 10L20 5L15 0L10 5Z" fill="#fcae2e"/></g><g transform="translate(670.53,313.87) scale(0.7135) rotate(0)"><rect width="2" height="20" fill="#6b6d7b"/><rect x="4" width="2" height="20" fill="#6b6d7b"/><rect x="8" width="2" height="20" fill="#6b6d7b"/><rect x="12" width="2" height="20" fill="#6b6d7b"/><rect x="16" width="2" height="20" fill="#6b6d7b"/></g><g transform="translate(1027.2,313.87) scale(0.7135) rotate(0)"><path d="M10 5L5 0L0 5L5 10L0 15L5 20L10 15L15 20L20 15L15 10L20 5L15 0L10 5Z" fill="#fee4ba"/></g><g transform="translate(1098.53,313.87) scale(0.7135) rotate(0)"><path d="M10 5L5 0L0 5L5 10L0 15L5 20L10 15L15 20L20 15L15 10L20 5L15 0L10 5Z" fill="#323449"/></g><g transform="translate(813.2,385.2) scale(0.7135) rotate(0)"><rect width="2" height="20" fill="#feefd5"/><rect x="4" width="2" height="20" fill="#feefd5"/><rect x="8" width="2" height="20" fill="#feefd5"/><rect x="12" width="2" height="20" fill="#feefd5"/><rect x="16" width="2" height="20" fill="#feefd5"/></g><g transform="translate(1027.2,385.2) scale(0.7135) rotate(0)"><path d="M5 0H10L5 5L0 10V5L5 0Z" fill="#fff4e4"/><path d="M20 15V20H15L20 15Z" fill="#fff4e4"/><path d="M20 5V10L15 15L10 20H5L20 5Z" fill="#fff4e4"/><path d="M15 0H20L5 15.0002L0 20.0002V15.0002L15 0Z" fill="#fff4e4"/></g><circle cx="392.335" cy="463.66499999999996" r="7.135" fill="#fdc05c"/><circle cx="463.66499999999996" cy="463.66499999999996" r="7.135" fill="#93949f"/><circle cx="535.005" cy="463.66499999999996" r="7.135" fill="#fcaf31"/><g transform="translate(599.2,456.53) scale(0.7135) rotate(0)"><rect width="2" height="20" fill="#8d8e99"/><rect x="4" width="2" height="20" fill="#8d8e99"/><rect x="8" width="2" height="20" fill="#8d8e99"/><rect x="12" width="2" height="20" fill="#8d8e99"/><rect x="16" width="2" height="20" fill="#8d8e99"/></g><g transform="translate(1098.53,456.53) scale(0.7135) rotate(0)"><path d="M5 0H10L5 5L0 10V5L5 0Z" fill="#686978"/><path d="M20 15V20H15L20 15Z" fill="#686978"/><path d="M20 5V10L15 15L10 20H5L20 5Z" fill="#686978"/><path d="M15 0H20L5 15.0002L0 20.0002V15.0002L15 0Z" fill="#686978"/></g><g transform="translate(28.53,527.87) scale(0.7135) rotate(0)"><path d="M5 0H10L5 5L0 10V5L5 0Z" fill="#d0d1d5"/><path d="M20 15V20H15L20 15Z" fill="#d0d1d5"/><path d="M20 5V10L15 15L10 20H5L20 5Z" fill="#d0d1d5"/><path d="M15 0H20L5 15.0002L0 20.0002V15.0002L15 0Z" fill="#d0d1d5"/></g><g transform="translate(99.87,527.87) scale(0.7135) rotate(0)"><path d="M5 0H10L5 5L0 10V5L5 0Z" fill="#fffefb"/><path d="M20 15V20H15L20 15Z" fill="#fffefb"/><path d="M20 5V10L15 15L10 20H5L20 5Z" fill="#fffefb"/><path d="M15 0H20L5 15.0002L0 20.0002V15.0002L15 0Z" fill="#fffefb"/></g><g transform="translate(242.53,527.87) scale(0.7135) rotate(0)"><rect width="2" height="20" fill="#f7f7f8"/><rect x="4" width="2" height="20" fill="#f7f7f8"/><rect x="8" width="2" height="20" fill="#f7f7f8"/><rect x="12" width="2" height="20" fill="#f7f7f8"/><rect x="16" width="2" height="20" fill="#f7f7f8"/></g><g transform="translate(313.87,527.87) scale(0.7135) rotate(0)"><path d="M5 0H10L5 5L0 10V5L5 0Z" fill="#d4d5d9"/><path d="M20 15V20H15L20 15Z" fill="#d4d5d9"/><path d="M20 5V10L15 15L10 20H5L20 5Z" fill="#d4d5d9"/><path d="M15 0H20L5 15.0002L0 20.0002V15.0002L15 0Z" fill="#d4d5d9"/></g><g transform="translate(385.2,527.87) scale(0.7135) rotate(0)"><rect width="2" height="20" fill="#fdb642"/><rect x="4" width="2" height="20" fill="#fdb642"/><rect x="8" width="2" height="20" fill="#fdb642"/><rect x="12" width="2" height="20" fill="#fdb642"/><rect x="16" width="2" height="20" fill="#fdb642"/></g><circle cx="107.00500000000001" cy="606.335" r="7.135" fill="#868793"/><g transform="translate(313.87,599.2) scale(0.7135) rotate(0)"><path d="M10 5L5 0L0 5L5 10L0 15L5 20L10 15L15 20L20 15L15 10L20 5L15 0L10 5Z" fill="#6f717f"/></g><g transform="translate(670.53,599.2) scale(0.7135) rotate(0)"><rect width="2" height="20" fill="#ceced3"/><rect x="4" width="2" height="20" fill="#ceced3"/><rect x="8" width="2" height="20" fill="#ceced3"/><rect x="12" width="2" height="20" fill="#ceced3"/><rect x="16" width="2" height="20" fill="#ceced3"/></g><g transform="translate(741.87,599.2) scale(0.7135) rotate(0)"><path d="M5 0H10L5 5L0 10V5L5 0Z" fill="#fff6e9"/><path d="M20 15V20H15L20 15Z" fill="#fff6e9"/><path d="M20 5V10L15 15L10 20H5L20 5Z" fill="#fff6e9"/><path d="M15 0H20L5 15.0002L0 20.0002V15.0002L15 0Z" fill="#fff6e9"/></g><g transform="translate(955.87,599.2) scale(0.7135) rotate(0)"><path d="M10 5L5 0L0 5L5 10L0 15L5 20L10 15L15 20L20 15L15 10L20 5L15 0L10 5Z" fill="#fff2dc"/></g></g></svg>